<svg width="161" height="156" viewBox="0 0 161 156" fill="none" xmlns="http://www.w3.org/2000/svg">
<path fill-rule="evenodd" clip-rule="evenodd" d="M82.9163 56.4741C82.3411 30.7668 67.253 15.192 44.2891 5.98871C108.712 -19.4088 140.348 42.9346 94.9956 63.1995C88.5799 66.0755 83.0933 65.1464 82.8721 56.4741H82.9163Z" fill="#0236FF"/>
<path fill-rule="evenodd" clip-rule="evenodd" d="M63.0071 64.9684C40.4856 52.6236 19.4242 57.889 0 73.154C10.221 4.66032 79.9978 8.46557 74.9094 57.8447C74.2015 64.8357 70.6618 69.1276 63.0071 64.9684Z" fill="#0236FF"/>
<path fill-rule="evenodd" clip-rule="evenodd" d="M60.4012 86.5194C38.4107 99.8376 32.4816 120.722 36.0214 145.19C-18.1807 102.094 20.0041 43.5561 60.2242 72.6703C65.932 76.7853 67.8789 82.0063 60.4455 86.5194H60.4012Z" fill="#0236FF"/>
<path fill-rule="evenodd" clip-rule="evenodd" d="M77.7449 99.5256C78.3201 125.233 93.4082 140.808 116.372 150.011C51.9492 175.408 20.3129 113.065 65.6656 92.8001C72.0814 89.9241 77.5679 90.8532 77.7449 99.5256Z" fill="#0236FF"/>
<path fill-rule="evenodd" clip-rule="evenodd" d="M97.6965 90.9825C120.218 103.327 141.279 98.0619 160.704 82.7969C150.483 151.291 80.7059 147.485 85.7942 98.1063C86.5022 91.1153 90.0419 86.8233 97.6965 90.9825Z" fill="#0236FF"/>
<path fill-rule="evenodd" clip-rule="evenodd" d="M100.264 69.4835C122.255 56.1653 128.184 35.2809 124.644 10.8125C178.846 53.9087 140.662 112.447 100.441 83.3327C94.7336 79.2178 92.7867 73.9967 100.22 69.4835H100.264Z" fill="#0236FF"/>
</svg>
