<svg width="24" height="24" viewBox="0 0 24 24" fill="none" xmlns="http://www.w3.org/2000/svg">
<path d="M17.3726 8.17276C20.0986 9.39695 22 12.1611 22 15.375V18.75C22 19.9926 21.0051 21 19.7778 21H13.1111C10.2084 21 7.73898 19.1217 6.82379 16.5M17.3726 8.17276C16.6711 5.20566 14.0344 3 10.8889 3H9.77778C5.48223 3 2 6.52576 2 10.875V14.25C2 15.4926 2.99492 16.5 4.22222 16.5H6.82379M17.3726 8.17276C17.4922 8.67875 17.5556 9.20688 17.5556 9.75C17.5556 13.4779 14.5708 16.5 10.8889 16.5H6.82379M10 10C11.1046 10 12 9.10457 12 8C12 6.89543 11.1046 6 10 6C8.89543 6 8 6.89543 8 8" stroke="#28303F" stroke-width="1.5" stroke-linecap="round" stroke-linejoin="round"/>
<path d="M11 13C11 13.5523 10.5523 14 10 14C9.44772 14 9 13.5523 9 13C9 12.4477 9.44772 12 10 12C10.5523 12 11 12.4477 11 13Z" fill="#28303F"/>
</svg>
